<?xml version="1.0" encoding="utf-8"?>
<!-- Svg Vector Icons : http://www.onlinewebfonts.com/icon -->
<!DOCTYPE svg PUBLIC "-//W3C//DTD SVG 1.1//EN" "http://www.w3.org/Graphics/SVG/1.1/DTD/svg11.dtd">
<svg version="1.1" xmlns="http://www.w3.org/2000/svg" xmlns:xlink="http://www.w3.org/1999/xlink" x="0px" y="0px" viewBox="0 0 1000 1000" enable-background="new 0 0 500 500" xml:space="preserve">
<metadata> Svg Vector Icons : http://www.onlinewebfonts.com/icon </metadata>
<g><g transform="translate(0.000000,512.000000) scale(0.100000,-0.100000)"><path d="M5682.5,4983.6c-19.1-19.1-42.1-61.3-47.9-90c-23-111-413.6-2360.7-413.6-2379.8c0-15.3-356.1-21.1-1171.7-21.1c-1292.3,0-1326.8-3.8-1558.5-116.8c-241.2-118.7-335-231.7-850.1-1001.3c-457.6-689.2-467.1-704.6-467.1-802.2c-1.9-82.3,45.9-227.8,283.3-861.5l283.4-760.1l-197.2-206.8c-222.1-229.7-321.6-396.3-363.8-612.6c-45.9-245.1-3.8-444.2,222.1-1009c178-442.3,229.7-620.3,258.5-884.5c21.1-193.4,1.9-444.2-47.9-639.4c-38.3-145.5-36.4-176.2,15.3-224c90-86.2,202.9-36.4,243.1,105.3c93.8,335.1,97.7,762,9.6,1116.2c-26.8,111-122.5,381-210.6,603.1c-199.1,495.9-227.8,601.2-216.3,804.1c11.5,222.1,82.3,346.5,337,595.4c193.4,191.5,199.1,195.3,300.6,202.9c170.4,13.4,308.3,158.9,317.8,331.2c1.9,46,42.1,95.7,201,247l199.1,191.5l28.7-70.8c40.2-95.7,134-199.1,227.8-248.9c63.2-34.5,109.1-42.1,241.2-40.2c143.6,0,266.1,26.8,1012.8,214.4c467.1,118.7,859.6,212.5,871.1,208.7C5202-371.4,5449-538,5738-737.1c289.1-201,557.2-379.1,593.5-400.1c147.4-78.5,375.3-32.6,501.6,101.5c153.2,160.8,145.5,453.8-15.3,601.2c-53.6,49.8-978.3,693.1-1265.5,880.7C5339.8,584,5339.8,584,4665.9,415.5c-317.8-80.4-582-141.7-587.8-137.9c-3.8,5.8-32.5,95.7-61.3,201l-53.6,191.5l564.8,541.8l564.8,543.7l113,13.4c63.2,7.7,139.8,28.7,172.3,47.9c172.3,101.5,235.5,308.2,145.5,471l-47.9,84.2l216.3,1233c118.7,677.8,216.3,1256,218.3,1284.7c0,59.3-78.5,130.2-145.5,130.2C5740,5020,5701.7,5002.8,5682.5,4983.6z M4292.6,1372.7c-220.2-214.4-407.8-384.8-413.5-377.2c-5.7,7.7-57.4,178.1-113,377.2c-55.5,201-105.3,369.5-109.1,379.1c-3.8,7.7,227.8,13.4,515,13.4l522.7-1.9L4292.6,1372.7z M2492.9,427c111-298.7,201-553.3,201-566.7c0-23-358-373.3-381-373.3c-11.5,0-384.8,991.7-384.8,1020.5c0,7.7,74.7,126.4,166.6,264.2c114.9,172.3,170.4,241.2,180,222.1C2284.2,980.3,2381.8,723.7,2492.9,427z"/><path d="M2847.1,4520.3c-633.7-78.5-972.6-821.4-612.7-1347.9c70.8-103.4,225.9-247,323.6-294.8c375.3-191.5,859.6-82.3,1104.7,252.7C4124.1,3756.4,3620.6,4616,2847.1,4520.3z"/><path d="M8255.7,628l-572.5-917.1l-34.5-289.1c-17.2-158.9-32.5-298.7-32.5-310.1c-1.9-13.4-178.1-176.2-392.5-363.8l-392.5-342.7l-162.7-478.6c-90-262.3-199.1-620.3-243.2-794.6l-80.4-315.9l-356.1-327.4l-356.1-327.4l-327.4-467.1L4976.1-4773l1926-5.7c1058.7-1.9,1928-1.9,1931.8,1.9c3.8,3.8,3.8,1428.3,1.9,3164.8l-5.7,3157.1L8255.7,628z"/><path d="M4005.4-936.2c-283.3-70.8-520.8-130.2-526.5-132.1c-3.8,0,193.4-149.3,438.4-331.2l446.1-331.2l225.9-597.4c229.7-606.9,260.4-675.8,333.1-737.1c222.1-191.5,559.1-116.8,683.5,149.3c68.9,149.3,55.5,210.6-204.9,907.5c-132.1,354.2-260.4,687.3-287.2,740.9c-40.2,84.3-80.4,124.5-292.9,281.5c-135.9,103.4-258.5,185.7-273.8,183.8C4533.8-804.1,4290.6-863.4,4005.4-936.2z"/></g></g>
</svg>